Coordinates
version=1
nRows=14
nColumns=33
inDegrees=yes

Units are S.I. units (second, meters, Newtons, ...)
Angles are in degrees.

endheader
time	ground_thorax_rot_x	ground_thorax_rot_y	ground_thorax_rot_z	ground_thorax_tx	ground_thorax_ty	ground_thorax_tz	clav_prot_r	clav_elev_r	scapula_abduction_r	scapula_elevation_r	scapula_upward_rot_r	scapula_winging_r	shoulder_elv_r	plane_of_elev_r	axial_rot_r	elbow_flexion_r	pro_sup_r	wrist_flex_r	wrist_dev_r	clav_prot_l	clav_elev_l	scapula_abduction_l	scapula_elevation_l	scapula_upward_rot_l	scapula_winging_l	shoulder_elv_l	plane_of_elev_l	axial_rot_l	elbow_flexion_l	pro_sup_l	wrist_flex_l	wrist_dev_l	
3.3300	-38.998148	-7.843952	8.362983	-84.568914	778.565353	4.390122	8.032569	-45.000000	44.999968	-45.000000	-20.185602	-1168.997731	-2991.963154	147.710893	-147.405446	2168.104138	26.057741	16.684903	14.390599	15.100035	42.078500	-44.999899	-40.619345	-19.652117	2601.691034	-2984.259523	136.775095	180.000000	-714.798551	20.439850	10.857312	-17.903063	
3.3400	-39.154592	-7.623623	8.329188	-86.499793	779.391939	3.938628	7.878541	-45.000000	44.999942	-45.000000	-19.927127	-1169.215092	-2991.828646	147.722150	-146.820095	2168.303550	25.961325	16.830852	14.111361	14.981220	42.406213	-44.999819	-40.843288	-19.336177	2601.970858	-2984.244189	136.836561	180.000000	-714.624520	20.162896	10.828520	-17.936827	
3.3500	-39.315863	-7.411674	8.307105	-88.530771	780.257318	3.493312	7.732041	-45.000000	44.999897	-45.000000	-19.705385	-1169.440824	-2991.688616	147.729667	-146.280093	2168.497116	25.829354	16.978965	13.835654	14.886301	42.746601	-44.999677	-41.081617	-19.060381	2602.250652	-2984.222770	136.893297	180.000000	-714.450514	19.798902	10.809628	-17.958452	
3.3600	-39.482451	-7.272218	8.379768	-90.775925	781.200188	3.054487	7.673382	-45.000000	44.999815	-45.000000	-19.679447	-1169.698253	-2991.523639	147.713769	-145.846963	2168.707914	25.612947	17.088504	13.579921	14.911483	43.054538	-44.999420	-41.366100	-19.018717	2602.522943	-2984.169402	136.904888	180.000000	-714.295619	19.228336	10.758558	-17.975039	
3.3700	-39.653964	-7.177336	8.505450	-93.252193	782.232976	2.628671	7.664941	-45.000000	44.999669	-45.000000	-19.775618	-1169.978938	-2991.335934	147.686319	-145.505202	2168.926094	25.314915	17.178376	13.340303	14.989875	43.346867	-44.998962	-41.684922	-19.125366	2602.790550	-2984.096919	136.899345	180.000000	-714.151079	18.461268	10.707015	-17.981780	
3.3800	-39.830331	-7.140905	8.701237	-95.990437	783.372279	2.221769	7.712368	-45.000000	44.999407	-45.000000	-20.021735	-1170.291468	-2991.132650	147.644893	-145.258192	2169.148498	24.919946	17.251197	13.116892	15.168840	43.617251	-44.998140	-42.045348	-19.428300	2603.047347	-2983.996131	136.871274	180.000000	-714.016394	17.465558	10.648281	-17.972582	
3.3900	-40.006952	-7.124693	8.912840	-98.993458	784.626149	1.840218	7.772979	-45.000000	44.998938	-45.000000	-20.313660	-1170.621983	-2990.909154	147.608351	-145.074507	2169.370433	24.448677	17.320662	12.907545	15.325319	43.867177	-44.996670	-42.424122	-19.802346	2603.298257	-2983.886024	136.859663	180.000000	-713.884080	16.299018	10.616597	-17.955535	
3.4000	-40.182497	-7.145751	9.163421	-102.249775	785.996597	1.489765	7.854229	-45.000000	44.998098	-45.000000	-20.686075	-1170.981524	-2990.681901	147.568299	-144.946775	2169.584714	23.899757	17.391786	12.708044	15.548035	44.096426	-44.994030	-42.829615	-20.317367	2603.535093	-2983.752261	136.845465	180.000000	-713.752245	14.964427	10.589655	-17.923443	
3.4100	-40.349407	-7.172293	9.414109	-105.745469	787.482968	1.174575	7.930039	-45.000000	44.996592	-45.000000	-21.062709	-1171.357674	-2990.441479	147.538445	-144.849589	2169.787848	23.299912	17.468143	12.518165	15.734360	44.299560	-44.989322	-43.238299	-20.877924	2603.759729	-2983.608601	136.852930	180.000000	-713.619523	13.523568	10.586411	-17.887501	
3.4200	-40.504688	-7.206472	9.672724	-109.464600	789.081540	0.897776	8.005549	-45.000000	44.993896	-45.000000	-21.459397	-1171.756205	-2990.195277	147.511620	-144.775559	2169.974225	22.664977	17.548144	12.333383	15.918249	44.473874	-44.980830	-43.643922	-21.504422	2603.972978	-2983.445137	136.867559	180.000000	-713.492219	12.011379	10.590058	-17.847385	
3.4300	-40.640137	-7.218430	9.899554	-113.390216	790.786252	0.661591	8.055173	-45.000000	44.989064	-45.000000	-21.800999	-1172.166350	-2989.931849	147.498375	-144.688192	2170.146385	22.036268	17.635803	12.148296	15.990926	44.612561	-44.965779	-44.012789	-22.086878	2604.188632	-2983.273641	136.912232	180.000000	-713.368978	10.517689	10.618796	-17.816440	
3.4400	-40.752054	-7.240303	10.132844	-117.504800	792.587935	0.467251	8.101160	-45.000000	44.980417	-45.000000	-22.160488	-1172.600192	-2989.660178	147.482997	-144.586890	2170.306837	21.422852	17.727996	11.954851	16.052171	44.705318	-44.938372	-44.341016	-22.709915	2604.411344	-2983.071375	136.954749	180.000000	-713.255395	9.055272	10.640635	-17.789900	
3.4500	-40.828076	-7.285685	10.386153	-121.790614	794.474477	0.314782	8.162312	-45.000000	44.964904	-45.000000	-22.565876	-1173.052724	-2989.367435	147.463345	-144.458212	2170.458737	20.834121	17.822398	11.751391	16.113783	44.731992	-44.890521	-44.600753	-23.381252	2604.648969	-2982.825175	136.987935	180.000000	-713.154010	7.625713	10.655775	-17.763337	
3.4600	-40.867439	-7.367406	10.671160	-126.230047	796.430649	0.202718	8.223355	-45.000000	44.937179	-45.000000	-23.052343	-1173.517227	-2989.054604	147.437967	-144.309874	2170.603125	20.275141	17.918629	11.529196	16.143512	44.672490	-44.801339	-44.786703	-24.078734	2604.901051	-2982.537681	137.014891	180.000000	-713.071322	6.235794	10.670635	-17.736355	
